# xmcd
#
# Track frame offsets: 
#        150
#        16656
#        28568
#        42092
#        56680
#        68344
#        80956
#        93015
#        105717
#        123963
#        138294
#
# Disc length: 2006 seconds
#
# Revision: 3
# Processed by: cddbd v1.5.2PL0 Copyright (c) Steve Scherf et al.
# Submitted via: ExactAudioCopy v1.0b3
#
DISCID=7f07d40b
DTITLE=Scooter Lee - Moving On Up
DYEAR=1998
DGENRE=Country
TTITLE0=Locomotion
TTITLE1=Moving On Up
TTITLE2=I Wanna Make You MIne
TTITLE3=Blue Eyes
TTITLE4=This Love Of Ours
TTITLE5=OeeOeeO
TTITLE6=Livewire
TTITLE7=Here Lately
TTITLE8=Ribbon Of Highway
TTITLE9=Let's Break Up Tomorrow
TTITLE10=Dizzy
EXTD=
EXTT0=
EXTT1=
EXTT2=
EXTT3=
EXTT4=
EXTT5=
EXTT6=
EXTT7=
EXTT8=
EXTT9=
EXTT10=
PLAYORDER=
